<svg id="Layer_1" data-name="Layer 1" xmlns="http://www.w3.org/2000/svg" xmlns:xlink="http://www.w3.org/1999/xlink" viewBox="0 0 1157.09 1004.74"><defs><style>.cls-1,.cls-9{fill:none;}.cls-2{fill:blue;}.cls-10,.cls-2,.cls-3,.cls-7,.cls-9{stroke:#fff;}.cls-10,.cls-2,.cls-3,.cls-6,.cls-7,.cls-9{stroke-miterlimit:10;}.cls-2,.cls-3{stroke-width:4px;}.cls-3,.cls-5{fill:#fbd136;}.cls-4,.cls-6{fill:#fff;}.cls-6{stroke:blue;stroke-width:0.75px;}.cls-7{fill:#76cb2e;stroke-width:5px;}.cls-8{clip-path:url(#clip-path);}.cls-10{fill:#1b1464;}.cls-11{font-size:64.53px;fill:#231f20;font-family:FranklinGothic-Demi, Franklin Gothic Demi;font-weight:300;}.cls-12{letter-spacing:-0.01em;}</style><clipPath id="clip-path"><rect class="cls-1" x="439.07" y="437.15" width="275.72" height="284.96" transform="translate(-1.84 1.84) rotate(-0.18)"/></clipPath></defs><path class="cls-2" d="M841.47,198.91c3.56-1.77,90.11-43.1,154,1.66,32.53,22.8,44.43,57.59,47.91,76.52,14.37,78.23-62.27,173.56-189.91,237.85L721.71,574.82,617.34,363.58a248.27,248.27,0,0,1-13.68-38.26c-5.81-21.71-16.93-63.3-3.43-109.78,5.91-20.31,17.24-59.32,56.46-83.16C690.17,112,735,108.15,773,125.72c31,14.32,47,38.06,53,48.24Z"/><path class="cls-3" d="M319.07,196.88c2-3.38,50.38-84.45,129.06-81.66,40.08,1.42,69.83,23.95,83.52,37.81,56.6,57.34,47.24,178-22.26,300.33L434,574.23,226.57,454.77a259.29,259.29,0,0,1-33.21-24.44c-17.22-14.93-50.21-43.54-65.5-89.49-6.68-20.08-19.51-58.65-.49-99.65,16.24-35,51.36-62.4,93-68.28,33.93-4.79,60.81,6.32,71.66,11.52Z"/><path class="cls-4" d="M319.23,398.56l-12.69,3-1.1-82.16c-.12-2.91-2.63-4.83-4.76-4.45a4.3,4.3,0,0,0-3.21,4l.35,46-.63,9c-2,4-5.88,6.43-9.67,6a9.69,9.69,0,0,1-6.51-4,11.32,11.32,0,0,1-2-8.36l4.12-60.6a21.67,21.67,0,0,1,5.39-12,20.82,20.82,0,0,1,6.71-4.87L337.68,280a20.43,20.43,0,0,1,3.68-7.87,21.1,21.1,0,0,1,12.08-7.55l44.64-10.72a25,25,0,0,1,11.68.46,26.33,26.33,0,0,1,14.74,11.36l22.87,66.7a11,11,0,0,1-5.55,9.71c-.46.25-5.28,2.75-9.72,0a9.78,9.78,0,0,1-4.2-6l-18.19-52.92c-.38-2.74-2.3-4.78-4.43-5-2.69-.26-4.49,2.5-4.83,3a7.63,7.63,0,0,0-1,5.37l33,138.3a10.52,10.52,0,0,1-3.45,6.88,10.39,10.39,0,0,1-6.79,2.56l-80.91,19.71c-.25.06-4.73,1.08-7.91-2.11a8.47,8.47,0,0,1-2.34-6Z"/><ellipse class="cls-4" cx="309.57" cy="256.28" rx="23.18" ry="23.32" transform="translate(-30.82 42.63) rotate(-7.51)"/><ellipse class="cls-4" cx="362.43" cy="236.37" rx="23.18" ry="23.32" transform="translate(-27.77 49.36) rotate(-7.51)"/><ellipse class="cls-5" cx="359.26" cy="335.46" rx="19.02" ry="19.13" transform="translate(-40.74 49.8) rotate(-7.51)"/><path class="cls-5" d="M334.92,350.91c2.47,6.52,17.11,10.89,29.7,8.09,14.3-3.18,24.06-15.2,24.14-21a11.71,11.71,0,0,1,1.73-6.33,7.58,7.58,0,0,1,3.8-3.45,7.4,7.4,0,0,1,7.33,1.62,6.9,6.9,0,0,1,1.93,4.19c1.24,8.89-2.94,16.76-2.94,16.76-4.53,8.51-12.12,13-15.47,14.7l15.11,65.25A7.82,7.82,0,0,1,396,440c-3.72,1.71-7.73,0-9.77-2.14a8.1,8.1,0,0,1-2.21-5.38l-6.83-26.68-2.25-7.48a2.88,2.88,0,0,0-2.61-3.18,3.29,3.29,0,0,0-3.37,3.34l9.83,41.17a7.85,7.85,0,0,1-3.77,5.53c-3.31,1.72-8.25.59-11-3.26l-17.28-68.54a43.83,43.83,0,0,1-11-3.56c-3.66-1.75-10.69-5.09-14.93-12.18a14.64,14.64,0,0,1-2.45-8.28c.07-1.79.18-4.75,2.61-6.55a7.75,7.75,0,0,1,5.25-1.26,7.83,7.83,0,0,1,4.17,2A15.22,15.22,0,0,1,334.92,350.91Z"/><path class="cls-6" d="M786.29,263.68,802,275.25,761.5,308.71a20,20,0,0,0-8.37,10.34c-3.19,9.8,4,17.87,4.69,18.56l23.11,23.73H743.08c-8.8,1.53-14.17,9.24-12.4,16.12,1.48,5.77,7.75,10.16,15.08,10h68c.75-.13,7-1.29,10.05-6.7a12,12,0,0,0-1.68-13.69L799.7,331.53l25.55-20.08,6.27,22.21a13.68,13.68,0,0,0,4,7.6c5.27,5.05,12.81,4.36,13.74,4.26h40.2c4.83-3.4,7.51-8.64,6.7-13.69-1.12-7-8.76-12.72-18.09-12.47H856l-6.37-32.25a19.63,19.63,0,0,0-3-11.56,25,25,0,0,0-4.69-5.17c-1.34-1.22-40.2-27.08-40.2-27.08a14.83,14.83,0,0,0-5.36-4.26,16.36,16.36,0,0,0-6.37-1.52H744.75C738,240,734,246.12,735,252.12c.83,4.91,4.89,9.05,10.38,10.65Z"/><path class="cls-6" d="M781.6,389l-23.45,31.63a12.66,12.66,0,0,0,3.69,13.09c4.81,4.23,12.87,4.77,19.09.91L813.33,389Z"/><ellipse class="cls-6" cx="854.51" cy="249.77" rx="23.78" ry="21.59"/><path class="cls-7" d="M575.91,436.4c2.79-2.54,71-63,142.34-38.77,36.33,12.35,57,41.07,65.48,57.47,35,67.83-9,175.11-108.68,267.33L570.36,811.7l-155.06-166A240.87,240.87,0,0,1,392,614.3c-11.4-18.35-33.24-53.49-33.76-99.55-.22-20.13-.65-58.79,28.84-90.87,25.17-27.39,65.43-42.67,105.34-36.53,32.53,5,53.91,22.52,62.32,30.25Z"/><g class="cls-8"><rect class="cls-4" x="550.2" y="491.49" width="53.47" height="176.27" transform="translate(-1.84 1.84) rotate(-0.18)"/><rect class="cls-9" x="550.2" y="491.49" width="53.47" height="176.27" transform="translate(-1.84 1.84) rotate(-0.18)"/><polygon class="cls-4" points="491.74 607.53 491.56 552.27 550.11 552.09 603.58 551.92 662.13 551.73 662.3 606.99 603.75 607.17 550.29 607.34 491.74 607.53"/><polygon class="cls-9" points="491.74 607.53 491.56 552.27 550.11 552.09 603.58 551.92 662.13 551.73 662.3 606.99 603.75 607.17 550.29 607.34 491.74 607.53"/></g><path class="cls-10" d="M781.64,709.16c14.1-3.52,23.15-9.38,28.26-13.4,7.18-5.63,11.8-11.71,18.52-20.53,6.57-8.63,4.89-8,11.7-17,8-10.61,11.85-13.42,15.49-21.84,3.54-8.2-.37-21.58-5.75-23.7-5-2-10.71-.05-17.54,3.57a105.29,105.29,0,0,0-28.27,22.33c-19.23,20.69-28.85,31-41.91,38.39A122,122,0,0,1,728,689.51a130.93,130.93,0,0,1-25.34,2.68c-29.13.89-80.64,22.4-104.29,64.29C585.78,778.84,585,800,584.75,811a129.52,129.52,0,0,0,10.72,54.47l7.8,10.72a73.13,73.13,0,0,1,4.87-22.33c12.51-32,44.61-47.09,53.61-50.89,11.8-5,23.68-7.5,39-10.72,12.76-2.69,21.84-3.82,26.31-4.46,1.7-.25,40.61-6.09,73.1-23.22,35.06-18.48,53.11-45.08,64.33-61.61,8.54-12.58,25-37.41,30.22-73.22a155.62,155.62,0,0,0,1-36.61l-3.89-65.19c.14-1.62,1-13.41-4.88-16.07-6.34-2.85-17.3,6.24-22.42,14.29a32.43,32.43,0,0,0-4.87,18.75l-2,53.57.49,21.43-3.9,4.92"/><path class="cls-10" d="M371.63,709.16c-14.11-3.52-23.16-9.38-28.27-13.4-7.17-5.63-11.8-11.71-18.52-20.53-6.56-8.63-4.89-8-11.69-17-8-10.61-11.85-13.42-15.49-21.84-3.54-8.2.36-21.58,5.74-23.7,5-2,10.71-.05,17.55,3.57a105,105,0,0,1,28.26,22.33c19.23,20.69,28.85,31,41.91,38.39a122.24,122.24,0,0,0,34.12,12.5,130.86,130.86,0,0,0,25.34,2.68c29.13.89,80.64,22.4,104.29,64.29C567.49,778.84,568.25,800,568.52,811a129.5,129.5,0,0,1-10.73,54.47L550,876.14a73.2,73.2,0,0,0-4.88-22.33c-12.5-32-44.61-47.09-53.6-50.89-11.81-5-23.68-7.5-39-10.72-12.76-2.69-21.85-3.82-26.32-4.46-1.69-.25-40.61-6.09-73.1-23.22C318.05,746,300,719.44,288.78,702.91c-8.54-12.58-25-37.41-30.21-73.22a155.71,155.71,0,0,1-1-36.61l3.9-65.19c-.14-1.62-1-13.41,4.87-16.07,6.34-2.85,17.3,6.24,22.42,14.29a32.27,32.27,0,0,1,4.87,18.75l2,53.57-.48,21.43,3.9,4.92"/><text class="cls-11" transform="translate(40.81 966.3) scale(1.1 1)">SCHIEDLER MEDI<tspan class="cls-12" x="497.7" y="0">C</tspan><tspan x="537.8" y="0">AL PREFERRED</tspan></text></svg>